<svg xmlns="http://www.w3.org/2000/svg" viewBox="0 0 703.38 806.49"><defs><style>.cls-1{fill:#f26900;}.cls-2{fill:#fea143;}.cls-3{fill:#8ad311;}.cls-4{fill:#60118f;}.cls-5{fill:#371d61;}</style></defs><g id="Capa_2" data-name="Capa 2"><g id="Capa_1-2" data-name="Capa 1"><path class="cls-1" d="M0,438.06V.61C1.08.06,2.21.33,3.3.33h430c4.61,0,4.61,0,4.61,4.71V434c0,.91,0,1.81,0,2.72.05,1.13-.39,1.7-1.57,1.64-.7,0-1.41,0-2.12,0H3.32C2.22,438.34,1.09,438.61,0,438.06Z"/><path class="cls-2" d="M0,438.06c1.41,0,2.82-.07,4.23-.07q214.43,0,428.84,0c4.78,0,4.59.91,4.59-4.49q0-214.78.07-429.57c0-2.56-.85-3.37-3.14-3.3-.81,0-1.62,0-2.43,0H0C.16.43-.28,0,.33,0,1.14,0,2,0,2.75,0h435.5c.05,2.31.15,4.63.15,6.94q0,213.08,0,426.14c0,5.48,0,5.48-5.43,5.48H3.35c-1.1,0-2.21.06-3.32.09Z"/><path class="cls-3" d="M393.23,806.43q-85.32,0-170.65.06c-2.63,0-3.73-.73-3.48-3.39.12-1.3,0-2.62,0-3.93V468.89c0-2.62.08-5.25-.07-7.86s1.24-3.39,3.46-3.44c1.11,0,2.22.05,3.33.05H558.34c2,0,4,.09,6-.11,2.4-.25,3.34.81,3.34,3.06,0,2.41.06,4.83.06,7.25q0,166.8,0,333.61c0,6.16-.26,4.95-4.82,4.95q-84.87,0-169.75,0Z"/><path class="cls-4" d="M459.46,193.71c1.11-.05,2.21-.16,3.31-.16H699.41c4,0,4,0,4,4V432.27c0,.8,0,1.61,0,2.42,0,2-.55,2.93-2.94,2.93q-119.38-.12-238.75-.11c-.89,0-2.86.95-2.29-1.52a8.5,8.5,0,0,1-.25-3.29q0-118,0-236C459.15,195.68,458.87,194.65,459.46,193.71Z"/><path class="cls-5" d="M459.46,193.71q0,118.73,0,237.44c0,1.61,0,3.22-.05,4.84-1-.79-.55-1.88-.55-2.83q0-118.41,0-236.82C458.87,195.49,458.17,194.33,459.46,193.71Z"/></g></g></svg>